<svg width="55" height="55" viewBox="0 0 55 55" fill="none" xmlns="http://www.w3.org/2000/svg">
<g clip-path="url(#clip0_503_17)">
<path d="M14.2724 0.352895L41.2389 17.9976V35.9951L0 8.99878L13.2165 0.352895C13.3787 0.253616 13.5601 0.201637 13.7444 0.201637C13.9288 0.201637 14.1102 0.253616 14.2724 0.352895Z" fill="#3CA9E5"/>
<path d="M41.2389 0L27.4889 8.99877L41.2389 17.9975V0Z" fill="#2853C3"/>
<path d="M41.2389 0L54.4665 8.64588C54.6256 8.75561 54.7578 8.90891 54.851 9.09169C54.9442 9.27447 54.9955 9.48088 55 9.69196V44.9813L41.2389 35.9951V0Z" fill="#1A4199"/>
<path d="M54.9889 44.9939L41.7725 53.6398C41.6035 53.7504 41.4118 53.8086 41.2167 53.8086C41.0216 53.8086 40.8299 53.7504 40.6609 53.6398L13.7056 35.9951V17.9723L54.9889 44.9939Z" fill="#2853C3"/>
<path d="M1.88527e-05 8.99877V44.2881C-0.00109831 44.5056 0.0474523 44.7197 0.140948 44.9097C0.234444 45.0996 0.369703 45.2589 0.533568 45.372L13.75 54.0179V17.9723L1.88527e-05 8.99877Z" fill="#60BEFF"/>
<path d="M13.75 53.9927L27.4889 44.9939L13.75 35.9951V53.9927Z" fill="#3CA9E5"/>
</g>
<defs>
<clipPath id="clip0_503_17">
<rect width="55" height="54.0179" fill="white"/>
</clipPath>
</defs>
</svg>
