<svg width="38" height="35" viewBox="0 0 38 35" fill="none" xmlns="http://www.w3.org/2000/svg">
<g clip-path="url(#clip0_502_7)">
<path d="M9.63291 0.228651L27.8334 11.6612V23.3224L0 5.83061L8.9202 0.228651C9.02968 0.164325 9.15214 0.130646 9.27655 0.130646C9.40097 0.130646 9.52343 0.164325 9.63291 0.228651Z" fill="#3CA9E5"/>
<path d="M27.8334 0L18.5531 5.83061L27.8334 11.6612V0Z" fill="#2853C3"/>
<path d="M27.8334 0L36.7611 5.60196C36.8685 5.67306 36.9577 5.77238 37.0206 5.89081C37.0835 6.00924 37.1181 6.14298 37.1212 6.27975V29.1449L27.8334 23.3224V0Z" fill="#1A4199"/>
<path d="M37.1137 29.1531L28.1935 34.755C28.0794 34.8267 27.95 34.8644 27.8184 34.8644C27.6867 34.8644 27.5573 34.8267 27.4432 34.755L9.25024 23.3225V11.6449L37.1137 29.1531Z" fill="#2853C3"/>
<path d="M1.27243e-05 5.83061V28.6958C-0.000741283 28.8367 0.0320271 28.9754 0.0951305 29.0985C0.158234 29.2216 0.249524 29.3248 0.360121 29.398L9.28032 35V11.6449L1.27243e-05 5.83061Z" fill="#60BEFF"/>
<path d="M9.28027 34.9837L18.5531 29.1531L9.28027 23.3224V34.9837Z" fill="#3CA9E5"/>
</g>
<defs>
<clipPath id="clip0_502_7">
<rect width="37.1212" height="35" fill="white"/>
</clipPath>
</defs>
</svg>
