<svg width="248" height="55" viewBox="0 0 248 55" fill="none" xmlns="http://www.w3.org/2000/svg">
<g clip-path="url(#clip0_502_4)">
<path d="M14.5319 0.359315L41.9887 18.3248V36.6496L0 9.16239L13.4568 0.359315C13.6219 0.258231 13.8067 0.205307 13.9943 0.205307C14.182 0.205307 14.3668 0.258231 14.5319 0.359315Z" fill="#3CA9E5"/>
<path d="M41.9887 0L27.9887 9.16239L41.9887 18.3248V0Z" fill="#2853C3"/>
<path d="M41.9887 0L55.4568 8.80308C55.6188 8.91481 55.7534 9.07089 55.8483 9.25699C55.9432 9.4431 55.9954 9.65326 56 9.86817V45.7991L41.9887 36.6496V0Z" fill="#1A4199"/>
<path d="M55.9887 45.8119L42.5319 54.615C42.3599 54.7277 42.1647 54.7869 41.966 54.7869C41.7674 54.7869 41.5722 54.7277 41.4001 54.615L13.9547 36.6496V18.2991L55.9887 45.8119Z" fill="#2853C3"/>
<path d="M1.91954e-05 9.16238V45.0933C-0.00111828 45.3148 0.0483151 45.5328 0.143511 45.7262C0.238707 45.9196 0.376425 46.0818 0.543269 46.1969L14 55V18.2991L1.91954e-05 9.16238Z" fill="#60BEFF"/>
<path d="M14 54.9743L27.9887 45.8119L14 36.6496V54.9743Z" fill="#3CA9E5"/>
</g>
<path d="M61.7705 14.458C63.1475 14.7028 64.2796 14.8711 65.167 14.9629C66.0544 15.0547 66.7734 15.1312 67.3242 15.1924C67.9668 15.2536 68.4717 15.2689 68.8389 15.2383H70.2158C70.7054 15.2383 71.3174 15.2383 72.0518 15.2383C72.8167 15.2077 73.7653 15.1924 74.8975 15.1924C75.54 16.6917 76.1214 18.0687 76.6416 19.3232C77.1924 20.5778 77.6514 21.6488 78.0186 22.5361C78.4469 23.6071 78.8447 24.571 79.2119 25.4277C79.6403 26.4987 80.0993 27.6768 80.5889 28.9619C81.0785 30.2471 81.5221 31.4557 81.9199 32.5879C82.3483 33.7201 82.7002 34.6533 82.9756 35.3877C83.251 36.1221 83.3887 36.4587 83.3887 36.3975C83.3887 36.3669 83.404 36.0609 83.4346 35.4795C83.4652 34.8675 83.4958 34.1178 83.5264 33.2305C83.557 32.3125 83.5876 31.318 83.6182 30.2471C83.6794 29.1455 83.71 28.0898 83.71 27.0801C83.7406 26.0397 83.7559 25.0911 83.7559 24.2344C83.7559 23.3776 83.7253 22.735 83.6641 22.3066C83.5723 21.7865 83.3887 21.1898 83.1133 20.5166C82.8685 19.9352 82.5319 19.2467 82.1035 18.4512C81.6751 17.625 81.0785 16.6917 80.3135 15.6514C81.568 15.682 82.5931 15.6973 83.3887 15.6973C84.1842 15.6973 84.8268 15.6973 85.3164 15.6973C85.8672 15.6973 86.2956 15.682 86.6016 15.6514C86.9993 15.6514 87.4889 15.6208 88.0703 15.5596C88.5905 15.4984 89.2331 15.4525 89.998 15.4219C90.7936 15.3607 91.7728 15.2842 92.9355 15.1924C92.2624 15.8044 91.7269 16.3857 91.3291 16.9365C90.9313 17.4873 90.61 17.9769 90.3652 18.4053C90.0898 18.8949 89.9062 19.3538 89.8145 19.7822C89.6921 20.333 89.585 21.2357 89.4932 22.4902C89.432 23.7142 89.3555 25.0911 89.2637 26.6211C89.2025 28.151 89.1413 29.7422 89.0801 31.3945C89.0189 33.0469 88.9577 34.5615 88.8965 35.9385C88.8965 36.9788 88.8659 38.0957 88.8047 39.2891C88.7435 40.2988 88.6823 41.4463 88.6211 42.7314C88.5599 43.986 88.4834 45.2559 88.3916 46.541L84.3066 46.6328C83.1133 44.5215 82.1035 42.7161 81.2773 41.2168C80.4818 39.6868 79.8239 38.4323 79.3037 37.4531C78.7223 36.321 78.2327 35.3724 77.835 34.6074C77.4984 33.873 77.0547 33.0316 76.5039 32.083C76.0449 31.2874 75.4635 30.3083 74.7598 29.1455C74.0866 27.9827 73.2757 26.6517 72.3271 25.1523C72.2354 27.2637 72.1895 29.069 72.1895 30.5684C72.2201 32.0371 72.266 33.2611 72.3271 34.2402C72.4189 35.3724 72.526 36.321 72.6484 37.0859C72.8014 37.8203 73.0156 38.6465 73.291 39.5645C73.5358 40.36 73.8265 41.2933 74.1631 42.3643C74.5303 43.4352 74.974 44.6439 75.4941 45.9902C73.6888 45.8984 72.3424 45.8525 71.4551 45.8525H70.0781C69.6497 45.8525 69.0684 45.8984 68.334 45.9902C67.722 46.0514 66.8805 46.1432 65.8096 46.2656C64.7692 46.388 63.4688 46.5563 61.9082 46.7705C62.6426 45.8831 63.224 45.0723 63.6523 44.3379C64.1113 43.5729 64.4632 42.9303 64.708 42.4102C65.014 41.7982 65.2282 41.2627 65.3506 40.8037C65.4424 40.3141 65.5036 39.4727 65.5342 38.2793C65.5648 37.0553 65.5648 35.6784 65.5342 34.1484C65.5342 32.5879 65.5036 30.9508 65.4424 29.2373C65.4118 27.5238 65.3659 25.9326 65.3047 24.4639C65.2435 22.9951 65.167 21.7406 65.0752 20.7002C65.014 19.6598 64.9681 19.0173 64.9375 18.7725C64.8457 18.3747 64.6621 17.9463 64.3867 17.4873C64.1419 17.0895 63.8206 16.6458 63.4229 16.1562C63.0251 15.6361 62.4743 15.07 61.7705 14.458ZM105.236 26.4375C106.032 26.4375 106.858 26.5905 107.715 26.8965C108.572 27.1719 109.398 27.5391 110.193 27.998C110.989 28.4264 111.708 28.9007 112.351 29.4209C113.024 29.9105 113.575 30.3848 114.003 30.8438C114.768 31.6699 115.288 32.7868 115.563 34.1943C115.869 35.5713 115.931 36.9941 115.747 38.4629C115.563 39.901 115.135 41.2627 114.462 42.5479C113.789 43.833 112.855 44.7816 111.662 45.3936C110.805 45.8219 109.964 46.1585 109.138 46.4033C108.312 46.6481 107.516 46.8317 106.751 46.9541C105.986 47.0765 105.267 47.1377 104.594 47.1377C103.921 47.1377 103.339 47.1224 102.85 47.0918C101.932 47.0306 100.968 46.7093 99.958 46.1279C98.9788 45.5465 98.0456 44.8275 97.1582 43.9707C96.3014 43.1139 95.5671 42.1807 94.9551 41.1709C94.3431 40.1305 93.9759 39.1514 93.8535 38.2334C93.6699 36.9788 93.6393 35.6631 93.7617 34.2861C93.8841 32.9092 94.3278 31.6393 95.0928 30.4766C95.8883 29.3138 97.0817 28.3499 98.6729 27.585C100.295 26.82 102.482 26.4375 105.236 26.4375ZM103.722 44.2461C104.058 44.3073 104.517 44.2308 105.099 44.0166C105.68 43.7718 106.246 43.3893 106.797 42.8691C107.378 42.349 107.883 41.6911 108.312 40.8955C108.771 40.0693 109.046 39.0749 109.138 37.9121C109.229 36.7799 109.229 35.7396 109.138 34.791C109.076 33.8424 108.939 33.0163 108.725 32.3125C108.51 31.5781 108.266 30.9814 107.99 30.5225C107.715 30.0635 107.424 29.7422 107.118 29.5586C106.598 29.2832 105.971 29.069 105.236 28.916C104.502 28.7324 103.875 28.763 103.354 29.0078C103.11 29.1302 102.804 29.3903 102.437 29.7881C102.069 30.1859 101.702 30.6908 101.335 31.3027C100.968 31.8841 100.631 32.5573 100.325 33.3223C100.05 34.0872 99.8509 34.8828 99.7285 35.709C99.6061 36.5352 99.5755 37.4225 99.6367 38.3711C99.7285 39.3197 99.9274 40.2223 100.233 41.0791C100.539 41.9053 100.968 42.6243 101.519 43.2363C102.1 43.8177 102.834 44.1543 103.722 44.2461ZM113.498 21.71C114.018 21.8018 114.554 21.8783 115.104 21.9395C115.625 21.9701 116.099 22.0007 116.527 22.0312C117.017 22.0618 117.491 22.0771 117.95 22.0771C118.409 22.0771 118.929 22.0618 119.511 22.0312C120 22.0007 120.582 21.9548 121.255 21.8936C121.959 21.8324 122.724 21.7406 123.55 21.6182C123.06 21.8936 122.678 22.1842 122.402 22.4902C122.127 22.7962 121.913 23.0716 121.76 23.3164C121.576 23.6224 121.454 23.8978 121.393 24.1426C121.331 24.3874 121.347 24.8923 121.438 25.6572C121.53 26.4222 121.653 27.3096 121.806 28.3193C121.989 29.3291 122.188 30.3848 122.402 31.4863C122.617 32.5879 122.831 33.5977 123.045 34.5156C123.29 35.4336 123.504 36.1986 123.688 36.8105C123.902 37.4225 124.07 37.7132 124.192 37.6826C124.315 37.6826 124.498 37.3766 124.743 36.7646C125.019 36.1527 125.325 35.403 125.661 34.5156C125.998 33.5977 126.35 32.6032 126.717 31.5322C127.084 30.4307 127.405 29.4056 127.681 28.457C127.956 27.5085 128.17 26.7129 128.323 26.0703C128.507 25.3971 128.583 24.9993 128.553 24.877C128.461 24.7546 128.354 24.5863 128.231 24.3721C128.017 24.0355 127.543 23.4541 126.809 22.6279C127.696 22.6891 128.461 22.7503 129.104 22.8115C129.746 22.8421 130.266 22.888 130.664 22.9492C131.123 23.0104 131.49 23.0563 131.766 23.0869C132.041 23.1175 132.439 23.1175 132.959 23.0869C133.387 23.0869 133.953 23.0716 134.657 23.041C135.392 22.9798 136.294 22.888 137.365 22.7656C136.57 23.2246 135.912 23.6377 135.392 24.0049C134.902 24.3415 134.52 24.6322 134.244 24.877C133.908 25.1829 133.663 25.443 133.51 25.6572C133.296 26.055 132.913 27.0036 132.362 28.5029C132.118 29.1455 131.812 29.9411 131.444 30.8896C131.108 31.8382 130.695 32.9857 130.205 34.332C129.746 35.6478 129.195 37.193 128.553 38.9678C127.91 40.7425 127.191 42.7773 126.396 45.0723L121.943 45.5312C121.362 43.6035 120.888 41.9971 120.521 40.7119C120.184 39.3962 119.909 38.3405 119.694 37.5449C119.45 36.627 119.266 35.9079 119.144 35.3877C118.991 34.8063 118.807 33.9648 118.593 32.8633C118.379 31.7311 118.164 30.5837 117.95 29.4209C117.736 28.2581 117.522 27.2178 117.308 26.2998C117.093 25.3512 116.925 24.7699 116.803 24.5557C116.68 24.4027 116.466 24.1885 116.16 23.9131C115.915 23.6683 115.579 23.3776 115.15 23.041C114.722 22.6738 114.171 22.2301 113.498 21.71ZM146.958 39.6104C147.815 39.6104 148.61 39.5186 149.345 39.335C149.957 39.182 150.538 38.9372 151.089 38.6006C151.67 38.2334 152.053 37.6979 152.236 36.9941C152.848 37.1165 153.368 37.2236 153.797 37.3154C154.225 37.3766 154.592 37.4378 154.898 37.499C155.235 37.5908 155.526 37.652 155.771 37.6826C156.015 37.7438 156.306 37.805 156.643 37.8662C156.949 37.9274 157.316 38.0039 157.744 38.0957C158.203 38.1569 158.739 38.2487 159.351 38.3711C158.892 38.3099 158.417 38.3558 157.928 38.5088C157.469 38.6618 157.025 38.8301 156.597 39.0137C156.107 39.2279 155.648 39.488 155.22 39.7939C154.944 39.9775 154.623 40.2529 154.256 40.6201C153.919 40.9873 153.43 41.3392 152.787 41.6758C152.145 42.0124 151.288 42.3031 150.217 42.5479C149.176 42.762 147.83 42.8385 146.178 42.7773C144.189 42.7161 142.521 42.3643 141.175 41.7217C139.828 41.0485 138.742 40.2376 137.916 39.2891C137.09 38.3099 136.493 37.2542 136.126 36.1221C135.759 34.9899 135.56 33.9342 135.529 32.9551C135.499 31.9759 135.789 30.9508 136.401 29.8799C137.013 28.8089 137.87 27.8298 138.972 26.9424C140.104 26.055 141.465 25.3359 143.057 24.7852C144.648 24.2038 146.392 23.9131 148.289 23.9131C149.391 23.9131 150.4 24.0508 151.318 24.3262C152.267 24.571 153.124 24.9076 153.889 25.3359C154.684 25.7643 155.373 26.2539 155.954 26.8047C156.535 27.3249 157.025 27.8604 157.423 28.4111C157.821 28.9925 158.157 29.6045 158.433 30.2471C158.677 30.7979 158.876 31.4251 159.029 32.1289C159.182 32.8327 159.228 33.5518 159.167 34.2861C156.841 34.3473 154.96 34.3932 153.521 34.4238C152.114 34.4544 151.012 34.4697 150.217 34.4697H148.151H146.591C146.04 34.4697 145.321 34.485 144.434 34.5156C143.546 34.5462 142.46 34.5921 141.175 34.6533C141.328 35.8773 141.71 36.8258 142.322 37.499C142.965 38.1416 143.638 38.6312 144.342 38.9678C145.137 39.335 146.009 39.5492 146.958 39.6104ZM142.827 31.3486C143.806 31.4098 144.617 31.4557 145.26 31.4863C145.933 31.5169 146.484 31.5475 146.912 31.5781C147.371 31.6087 147.738 31.624 148.014 31.624H149.161C149.926 31.624 151.349 31.5781 153.43 31.4863C153.338 30.14 153.047 29.1149 152.558 28.4111C152.099 27.7074 151.609 27.1872 151.089 26.8506C150.477 26.4834 149.804 26.2692 149.069 26.208C147.08 26.2386 145.596 26.6517 144.617 27.4473C143.669 28.2428 143.072 29.5433 142.827 31.3486ZM162.059 48.2852C162.365 47.8262 162.609 47.3978 162.793 47C162.977 46.6022 163.13 46.2656 163.252 45.9902C163.374 45.6536 163.466 45.3477 163.527 45.0723C163.558 44.8887 163.573 44.3532 163.573 43.4658C163.573 42.5785 163.543 41.4616 163.481 40.1152C163.451 38.7689 163.405 37.2542 163.344 35.5713C163.313 33.8883 163.252 32.1748 163.16 30.4307C163.099 28.6865 163.022 26.9883 162.931 25.3359C162.869 23.6836 162.808 22.1995 162.747 20.8838C162.686 19.5374 162.625 18.4359 162.563 17.5791C162.502 16.7223 162.456 16.2327 162.426 16.1104C162.365 15.9268 162.257 15.7432 162.104 15.5596C161.799 15.1924 161.278 14.8405 160.544 14.5039C162.104 14.1061 163.298 13.7848 164.124 13.54C164.614 13.4176 165.042 13.2952 165.409 13.1729C165.746 13.0505 166.082 12.9281 166.419 12.8057C166.694 12.6833 167 12.5456 167.337 12.3926C167.674 12.209 167.979 12.0101 168.255 11.7959C168.102 12.6833 167.979 13.54 167.888 14.3662C167.796 15.1924 167.719 15.9574 167.658 16.6611C167.597 17.4567 167.566 18.2217 167.566 18.9561C167.413 20.4554 167.322 22.0924 167.291 23.8672C167.291 25.6113 167.306 27.3861 167.337 29.1914C167.368 30.9967 167.429 32.7562 167.521 34.4697C167.612 36.1833 167.704 37.7438 167.796 39.1514C167.918 40.5283 168.025 41.7064 168.117 42.6855C168.24 43.6341 168.331 44.2461 168.393 44.5215C168.515 44.9805 168.637 45.4242 168.76 45.8525C168.882 46.2197 169.02 46.6022 169.173 47C169.326 47.4284 169.509 47.765 169.724 48.0098H165.271C164.874 48.0098 164.491 48.0251 164.124 48.0557C163.787 48.0863 163.436 48.1169 163.068 48.1475C162.701 48.1781 162.365 48.224 162.059 48.2852Z" fill="#1A4199"/>
<path d="M195.064 31.886L189.784 46.296L187.496 47.418L183.998 37.056L180.72 46.296L178.432 47.418L172.778 31.842L170.688 30.588L171.128 29.708H177.155V30.39L175.55 31.6L180.126 44.492L183.404 35.34L182.216 31.82L180.192 30.588L180.632 29.708H187.1V30.39L185.142 31.908L189.234 44.448L193.766 31.908L189.85 30.588L190.29 29.708H196.978V30.39L195.064 31.886ZM203.385 35.098C204.353 35.098 205.218 35.3547 205.981 35.868C206.758 36.3667 207.359 37.0487 207.785 37.914C208.225 38.7793 208.445 39.7327 208.445 40.774C208.445 41.9033 208.1 42.9667 207.411 43.964C206.721 44.9467 205.856 45.7387 204.815 46.34C203.788 46.9267 202.791 47.22 201.823 47.22C200.855 47.22 199.982 46.9707 199.205 46.472C198.442 45.9587 197.841 45.2693 197.401 44.404C196.975 43.5387 196.763 42.5853 196.763 41.544C196.763 40.4147 197.107 39.3587 197.797 38.376C198.486 37.3787 199.344 36.5867 200.371 36C201.412 35.3987 202.417 35.098 203.385 35.098ZM202.109 36.946C200.451 36.946 199.623 38.1267 199.623 40.488C199.623 41.8813 199.923 43.0473 200.525 43.986C201.126 44.91 201.984 45.372 203.099 45.372C204.756 45.372 205.585 44.184 205.585 41.808C205.585 40.4293 205.284 39.278 204.683 38.354C204.081 37.4153 203.223 36.946 202.109 36.946ZM219.134 35.12C219.618 35.12 220.044 35.252 220.41 35.516C220.777 35.78 221.063 36.1467 221.268 36.616L219.816 38.442H218.98C218.922 38.0753 218.812 37.8187 218.65 37.672C218.504 37.5107 218.298 37.43 218.034 37.43C217.712 37.43 217.367 37.518 217 37.694C216.648 37.8553 216.245 38.1707 215.79 38.64V45.196L218.87 46.142L218.43 47.022H211.192V46.34L213.15 44.8V38.574L211.192 37.43V36.748L214.954 34.9L215.636 37.606L217.924 35.274C218.232 35.1567 218.636 35.098 219.134 35.098V35.12ZM228.299 47H222.161V46.318L224.119 44.778V31.248L222.161 29.884V29.202L225.923 27.794H226.759V45.35L228.739 46.12L228.299 47ZM244.01 47H239.83V45.416L237.784 47.044C237.314 47.1613 236.75 47.22 236.09 47.22C235.122 47.22 234.249 46.9707 233.472 46.472C232.709 45.9587 232.108 45.2693 231.668 44.404C231.242 43.5387 231.03 42.5853 231.03 41.544C231.03 40.4147 231.374 39.3587 232.064 38.376C232.753 37.3787 233.611 36.5867 234.638 36C235.679 35.3987 236.684 35.098 237.652 35.098C238.458 35.098 239.192 35.3253 239.852 35.78V31.248L237.894 29.884V29.202L241.656 27.794H242.492V45.35L244.45 46.12L244.01 47ZM237.212 45.35C237.652 45.35 238.07 45.2913 238.466 45.174C238.876 45.042 239.331 44.8 239.83 44.448V39.432C239.742 38.6987 239.397 38.1047 238.796 37.65C238.209 37.1807 237.402 36.946 236.376 36.946C234.718 36.946 233.89 38.1267 233.89 40.488C233.89 41.8667 234.176 43.0253 234.748 43.964C235.32 44.888 236.141 45.35 237.212 45.35Z" fill="#3CA9E5"/>
<defs>
<clipPath id="clip0_502_4">
<rect width="56" height="55" fill="white"/>
</clipPath>
</defs>
</svg>
