<svg width="166" height="35" viewBox="0 0 166 35" fill="none" xmlns="http://www.w3.org/2000/svg">
<g clip-path="url(#clip0_502_4)">
<path d="M9.63291 0.228651L27.8334 11.6612V23.3224L0 5.83061L8.9202 0.228651C9.02968 0.164325 9.15214 0.130646 9.27655 0.130646C9.40097 0.130646 9.52343 0.164325 9.63291 0.228651Z" fill="#3CA9E5"/>
<path d="M27.8334 0L18.5531 5.83061L27.8334 11.6612V0Z" fill="#2853C3"/>
<path d="M27.8334 0L36.7611 5.60196C36.8685 5.67306 36.9578 5.77238 37.0207 5.89081C37.0836 6.00924 37.1182 6.14298 37.1212 6.27975V29.1449L27.8334 23.3224V0Z" fill="#1A4199"/>
<path d="M37.1137 29.1531L28.1935 34.755C28.0795 34.8267 27.9501 34.8644 27.8184 34.8644C27.6867 34.8644 27.5573 34.8267 27.4433 34.755L9.25031 23.3225V11.6449L37.1137 29.1531Z" fill="#2853C3"/>
<path d="M1.27243e-05 5.83061V28.6958C-0.000741283 28.8367 0.0320271 28.9754 0.0951305 29.0985C0.158234 29.2216 0.249524 29.3248 0.360121 29.398L9.28032 35V11.6449L1.27243e-05 5.83061Z" fill="#60BEFF"/>
<path d="M9.28027 34.9837L18.5531 29.1531L9.28027 23.3224V34.9837Z" fill="#3CA9E5"/>
</g>
<path d="M41.8682 11.3057C42.6592 11.4463 43.3096 11.543 43.8193 11.5957C44.3291 11.6484 44.7422 11.6924 45.0586 11.7275C45.4277 11.7627 45.7178 11.7715 45.9287 11.7539H46.7197C47.001 11.7539 47.3525 11.7539 47.7744 11.7539C48.2139 11.7363 48.7588 11.7275 49.4092 11.7275C49.7783 12.5889 50.1123 13.3799 50.4111 14.1006C50.7275 14.8213 50.9912 15.4365 51.2021 15.9463C51.4482 16.5615 51.6768 17.1152 51.8877 17.6074C52.1338 18.2227 52.3975 18.8994 52.6787 19.6377C52.96 20.376 53.2148 21.0703 53.4434 21.7207C53.6895 22.3711 53.8916 22.9072 54.0498 23.3291C54.208 23.751 54.2871 23.9443 54.2871 23.9092C54.2871 23.8916 54.2959 23.7158 54.3135 23.3818C54.3311 23.0303 54.3486 22.5996 54.3662 22.0898C54.3838 21.5625 54.4014 20.9912 54.4189 20.376C54.4541 19.7432 54.4717 19.1367 54.4717 18.5566C54.4893 17.959 54.498 17.4141 54.498 16.9219C54.498 16.4297 54.4805 16.0605 54.4453 15.8145C54.3926 15.5156 54.2871 15.1729 54.1289 14.7861C53.9883 14.4521 53.7949 14.0566 53.5488 13.5996C53.3027 13.125 52.96 12.5889 52.5205 11.9912C53.2412 12.0088 53.8301 12.0176 54.2871 12.0176C54.7441 12.0176 55.1133 12.0176 55.3945 12.0176C55.7109 12.0176 55.957 12.0088 56.1328 11.9912C56.3613 11.9912 56.6426 11.9736 56.9766 11.9385C57.2754 11.9033 57.6445 11.877 58.084 11.8594C58.541 11.8242 59.1035 11.7803 59.7715 11.7275C59.3848 12.0791 59.0771 12.4131 58.8486 12.7295C58.6201 13.0459 58.4355 13.3271 58.2949 13.5732C58.1367 13.8545 58.0312 14.1182 57.9785 14.3643C57.9082 14.6807 57.8467 15.1992 57.7939 15.9199C57.7588 16.623 57.7148 17.4141 57.6621 18.293C57.627 19.1719 57.5918 20.0859 57.5566 21.0352C57.5215 21.9844 57.4863 22.8545 57.4512 23.6455C57.4512 24.2432 57.4336 24.8848 57.3984 25.5703C57.3633 26.1504 57.3281 26.8096 57.293 27.5479C57.2578 28.2686 57.2139 28.998 57.1611 29.7363L54.8145 29.7891C54.1289 28.5762 53.5488 27.5391 53.0742 26.6777C52.6172 25.7988 52.2393 25.0781 51.9404 24.5156C51.6064 23.8652 51.3252 23.3203 51.0967 22.8809C50.9033 22.459 50.6484 21.9756 50.332 21.4307C50.0684 20.9736 49.7344 20.4111 49.3301 19.7432C48.9434 19.0752 48.4775 18.3105 47.9326 17.4492C47.8799 18.6621 47.8535 19.6992 47.8535 20.5605C47.8711 21.4043 47.8975 22.1074 47.9326 22.6699C47.9854 23.3203 48.0469 23.8652 48.1172 24.3047C48.2051 24.7266 48.3281 25.2012 48.4863 25.7285C48.627 26.1855 48.7939 26.7217 48.9873 27.3369C49.1982 27.9521 49.4531 28.6465 49.752 29.4199C48.7148 29.3672 47.9414 29.3408 47.4316 29.3408H46.6406C46.3945 29.3408 46.0605 29.3672 45.6387 29.4199C45.2871 29.4551 44.8037 29.5078 44.1885 29.5781C43.5908 29.6484 42.8438 29.7451 41.9473 29.8682C42.3691 29.3584 42.7031 28.8926 42.9492 28.4707C43.2129 28.0312 43.415 27.6621 43.5557 27.3633C43.7314 27.0117 43.8545 26.7041 43.9248 26.4404C43.9775 26.1592 44.0127 25.6758 44.0303 24.9902C44.0479 24.2871 44.0479 23.4961 44.0303 22.6172C44.0303 21.7207 44.0127 20.7803 43.9775 19.7959C43.96 18.8115 43.9336 17.8975 43.8984 17.0537C43.8633 16.21 43.8193 15.4893 43.7666 14.8916C43.7314 14.2939 43.7051 13.9248 43.6875 13.7842C43.6348 13.5557 43.5293 13.3096 43.3711 13.0459C43.2305 12.8174 43.0459 12.5625 42.8174 12.2812C42.5889 11.9824 42.2725 11.6572 41.8682 11.3057ZM66.8379 18.1875C67.2949 18.1875 67.7695 18.2754 68.2617 18.4512C68.7539 18.6094 69.2285 18.8203 69.6855 19.084C70.1426 19.3301 70.5557 19.6025 70.9248 19.9014C71.3115 20.1826 71.6279 20.4551 71.874 20.7188C72.3135 21.1934 72.6123 21.835 72.7705 22.6436C72.9463 23.4346 72.9814 24.252 72.876 25.0957C72.7705 25.9219 72.5244 26.7041 72.1377 27.4424C71.751 28.1807 71.2148 28.7256 70.5293 29.0771C70.0371 29.3232 69.5537 29.5166 69.0791 29.6572C68.6045 29.7979 68.1475 29.9033 67.708 29.9736C67.2686 30.0439 66.8555 30.0791 66.4688 30.0791C66.082 30.0791 65.748 30.0703 65.4668 30.0527C64.9395 30.0176 64.3857 29.833 63.8057 29.499C63.2432 29.165 62.707 28.752 62.1973 28.2598C61.7051 27.7676 61.2832 27.2314 60.9316 26.6514C60.5801 26.0537 60.3691 25.4912 60.2988 24.9639C60.1934 24.2432 60.1758 23.4873 60.2461 22.6963C60.3164 21.9053 60.5713 21.1758 61.0107 20.5078C61.4678 19.8398 62.1533 19.2861 63.0674 18.8467C63.999 18.4072 65.2559 18.1875 66.8379 18.1875ZM65.9678 28.418C66.1611 28.4531 66.4248 28.4092 66.7588 28.2861C67.0928 28.1455 67.418 27.9258 67.7344 27.627C68.0684 27.3281 68.3584 26.9502 68.6045 26.4932C68.8682 26.0186 69.0264 25.4473 69.0791 24.7793C69.1318 24.1289 69.1318 23.5312 69.0791 22.9863C69.0439 22.4414 68.9648 21.9668 68.8418 21.5625C68.7188 21.1406 68.5781 20.7979 68.4199 20.5342C68.2617 20.2705 68.0947 20.0859 67.9189 19.9805C67.6201 19.8223 67.2598 19.6992 66.8379 19.6113C66.416 19.5059 66.0557 19.5234 65.7568 19.6641C65.6162 19.7344 65.4404 19.8838 65.2295 20.1123C65.0186 20.3408 64.8076 20.6309 64.5967 20.9824C64.3857 21.3164 64.1924 21.7031 64.0166 22.1426C63.8584 22.582 63.7441 23.0391 63.6738 23.5137C63.6035 23.9883 63.5859 24.498 63.6211 25.043C63.6738 25.5879 63.7881 26.1064 63.9639 26.5986C64.1396 27.0732 64.3857 27.4863 64.7021 27.8379C65.0361 28.1719 65.458 28.3652 65.9678 28.418ZM71.584 15.4717C71.8828 15.5244 72.1904 15.5684 72.5068 15.6035C72.8057 15.6211 73.0781 15.6387 73.3242 15.6562C73.6055 15.6738 73.8779 15.6826 74.1416 15.6826C74.4053 15.6826 74.7041 15.6738 75.0381 15.6562C75.3193 15.6387 75.6533 15.6123 76.04 15.5771C76.4443 15.542 76.8838 15.4893 77.3584 15.4189C77.0771 15.5771 76.8574 15.7441 76.6992 15.9199C76.541 16.0957 76.418 16.2539 76.3301 16.3945C76.2246 16.5703 76.1543 16.7285 76.1191 16.8691C76.084 17.0098 76.0928 17.2998 76.1455 17.7393C76.1982 18.1787 76.2686 18.6885 76.3564 19.2686C76.4619 19.8486 76.5762 20.4551 76.6992 21.0879C76.8223 21.7207 76.9453 22.3008 77.0684 22.8281C77.209 23.3555 77.332 23.7949 77.4375 24.1465C77.5605 24.498 77.6572 24.665 77.7275 24.6475C77.7979 24.6475 77.9033 24.4717 78.0439 24.1201C78.2021 23.7686 78.3779 23.3379 78.5713 22.8281C78.7646 22.3008 78.9668 21.7295 79.1777 21.1143C79.3887 20.4814 79.5732 19.8926 79.7314 19.3477C79.8896 18.8027 80.0127 18.3457 80.1006 17.9766C80.2061 17.5898 80.25 17.3613 80.2324 17.291C80.1797 17.2207 80.1182 17.124 80.0479 17.001C79.9248 16.8076 79.6523 16.4736 79.2305 15.999C79.7402 16.0342 80.1797 16.0693 80.5488 16.1045C80.918 16.1221 81.2168 16.1484 81.4453 16.1836C81.709 16.2188 81.9199 16.2451 82.0781 16.2627C82.2363 16.2803 82.4648 16.2803 82.7637 16.2627C83.0098 16.2627 83.335 16.2539 83.7393 16.2363C84.1611 16.2012 84.6797 16.1484 85.2949 16.0781C84.8379 16.3418 84.46 16.5791 84.1611 16.79C83.8799 16.9834 83.6602 17.1504 83.502 17.291C83.3086 17.4668 83.168 17.6162 83.0801 17.7393C82.957 17.9678 82.7373 18.5127 82.4209 19.374C82.2803 19.7432 82.1045 20.2002 81.8936 20.7451C81.7002 21.29 81.4629 21.9492 81.1816 22.7227C80.918 23.4785 80.6016 24.3662 80.2324 25.3857C79.8633 26.4053 79.4502 27.5742 78.9932 28.8926L76.4355 29.1562C76.1016 28.0488 75.8291 27.126 75.6182 26.3877C75.4248 25.6318 75.2666 25.0254 75.1436 24.5684C75.0029 24.041 74.8975 23.6279 74.8271 23.3291C74.7393 22.9951 74.6338 22.5117 74.5107 21.8789C74.3877 21.2285 74.2646 20.5693 74.1416 19.9014C74.0186 19.2334 73.8955 18.6357 73.7725 18.1084C73.6494 17.5635 73.5527 17.2295 73.4824 17.1064C73.4121 17.0186 73.2891 16.8955 73.1133 16.7373C72.9727 16.5967 72.7793 16.4297 72.5332 16.2363C72.2871 16.0254 71.9707 15.7705 71.584 15.4717ZM90.8057 25.7549C91.2979 25.7549 91.7549 25.7021 92.1768 25.5967C92.5283 25.5088 92.8623 25.3682 93.1787 25.1748C93.5127 24.9639 93.7324 24.6562 93.8379 24.252C94.1895 24.3223 94.4883 24.3838 94.7344 24.4365C94.9805 24.4717 95.1914 24.5068 95.3672 24.542C95.5605 24.5947 95.7275 24.6299 95.8682 24.6475C96.0088 24.6826 96.1758 24.7178 96.3691 24.7529C96.5449 24.7881 96.7559 24.832 97.002 24.8848C97.2656 24.9199 97.5732 24.9727 97.9248 25.043C97.6611 25.0078 97.3887 25.0342 97.1074 25.1221C96.8438 25.21 96.5889 25.3066 96.3428 25.4121C96.0615 25.5352 95.7979 25.6846 95.5518 25.8604C95.3936 25.9658 95.209 26.124 94.998 26.335C94.8047 26.5459 94.5234 26.748 94.1543 26.9414C93.7852 27.1348 93.293 27.3018 92.6777 27.4424C92.0801 27.5654 91.3066 27.6094 90.3574 27.5742C89.2148 27.5391 88.2568 27.3369 87.4834 26.9678C86.71 26.5811 86.0859 26.1152 85.6113 25.5703C85.1367 25.0078 84.7939 24.4014 84.583 23.751C84.3721 23.1006 84.2578 22.4941 84.2402 21.9316C84.2227 21.3691 84.3896 20.7803 84.7412 20.165C85.0928 19.5498 85.585 18.9873 86.2178 18.4775C86.8682 17.9678 87.6504 17.5547 88.5645 17.2383C89.4785 16.9043 90.4805 16.7373 91.5703 16.7373C92.2031 16.7373 92.7832 16.8164 93.3105 16.9746C93.8555 17.1152 94.3477 17.3086 94.7871 17.5547C95.2441 17.8008 95.6396 18.082 95.9736 18.3984C96.3076 18.6973 96.5889 19.0049 96.8174 19.3213C97.0459 19.6553 97.2393 20.0068 97.3975 20.376C97.5381 20.6924 97.6523 21.0527 97.7402 21.457C97.8281 21.8613 97.8545 22.2744 97.8193 22.6963C96.4834 22.7314 95.4023 22.7578 94.5762 22.7754C93.7676 22.793 93.1348 22.8018 92.6777 22.8018H91.4912H90.5947C90.2783 22.8018 89.8652 22.8105 89.3555 22.8281C88.8457 22.8457 88.2217 22.8721 87.4834 22.9072C87.5713 23.6104 87.791 24.1553 88.1426 24.542C88.5117 24.9111 88.8984 25.1924 89.3027 25.3857C89.7598 25.5967 90.2607 25.7197 90.8057 25.7549ZM88.4326 21.0088C88.9951 21.0439 89.4609 21.0703 89.8301 21.0879C90.2168 21.1055 90.5332 21.123 90.7793 21.1406C91.043 21.1582 91.2539 21.167 91.4121 21.167H92.0713C92.5107 21.167 93.3281 21.1406 94.5234 21.0879C94.4707 20.3145 94.3037 19.7256 94.0225 19.3213C93.7588 18.917 93.4775 18.6182 93.1787 18.4248C92.8271 18.2139 92.4404 18.0908 92.0186 18.0557C90.876 18.0732 90.0234 18.3105 89.4609 18.7676C88.916 19.2246 88.5732 19.9717 88.4326 21.0088ZM99.4805 30.7383C99.6562 30.4746 99.7969 30.2285 99.9023 30C100.008 29.7715 100.096 29.5781 100.166 29.4199C100.236 29.2266 100.289 29.0508 100.324 28.8926C100.342 28.7871 100.351 28.4795 100.351 27.9697C100.351 27.46 100.333 26.8184 100.298 26.0449C100.28 25.2715 100.254 24.4014 100.219 23.4346C100.201 22.4678 100.166 21.4834 100.113 20.4814C100.078 19.4795 100.034 18.5039 99.9814 17.5547C99.9463 16.6055 99.9111 15.7529 99.876 14.9971C99.8408 14.2236 99.8057 13.5908 99.7705 13.0986C99.7354 12.6064 99.709 12.3252 99.6914 12.2549C99.6562 12.1494 99.5947 12.0439 99.5068 11.9385C99.3311 11.7275 99.0322 11.5254 98.6104 11.332C99.5068 11.1035 100.192 10.9189 100.667 10.7783C100.948 10.708 101.194 10.6377 101.405 10.5674C101.599 10.4971 101.792 10.4268 101.985 10.3564C102.144 10.2861 102.319 10.207 102.513 10.1191C102.706 10.0137 102.882 9.89941 103.04 9.77637C102.952 10.2861 102.882 10.7783 102.829 11.2529C102.776 11.7275 102.732 12.167 102.697 12.5713C102.662 13.0283 102.645 13.4678 102.645 13.8896C102.557 14.751 102.504 15.6914 102.486 16.7109C102.486 17.7129 102.495 18.7324 102.513 19.7695C102.53 20.8066 102.565 21.8174 102.618 22.8018C102.671 23.7861 102.724 24.6826 102.776 25.4912C102.847 26.2822 102.908 26.959 102.961 27.5215C103.031 28.0664 103.084 28.418 103.119 28.5762C103.189 28.8398 103.26 29.0947 103.33 29.3408C103.4 29.5518 103.479 29.7715 103.567 30C103.655 30.2461 103.761 30.4395 103.884 30.5801H101.326C101.098 30.5801 100.878 30.5889 100.667 30.6064C100.474 30.624 100.271 30.6416 100.061 30.6592C99.8496 30.6768 99.6562 30.7031 99.4805 30.7383Z" fill="#1A4199"/>
<path d="M119.95 20.382L116.59 29.552L115.134 30.266L112.908 23.672L110.822 29.552L109.366 30.266L105.768 20.354L104.438 19.556L104.718 18.996H108.553V19.43L107.532 20.2L110.444 28.404L112.53 22.58L111.774 20.34L110.486 19.556L110.766 18.996H114.882V19.43L113.636 20.396L116.24 28.376L119.124 20.396L116.632 19.556L116.912 18.996H121.168V19.43L119.95 20.382ZM125.245 22.426C125.861 22.426 126.411 22.5893 126.897 22.916C127.391 23.2333 127.774 23.6673 128.045 24.218C128.325 24.7687 128.465 25.3753 128.465 26.038C128.465 26.7567 128.245 27.4333 127.807 28.068C127.368 28.6933 126.817 29.1973 126.155 29.58C125.501 29.9533 124.867 30.14 124.251 30.14C123.635 30.14 123.079 29.9813 122.585 29.664C122.099 29.3373 121.717 28.8987 121.437 28.348C121.166 27.7973 121.031 27.1907 121.031 26.528C121.031 25.8093 121.25 25.1373 121.689 24.512C122.127 23.8773 122.673 23.3733 123.327 23C123.989 22.6173 124.629 22.426 125.245 22.426ZM124.433 23.602C123.378 23.602 122.851 24.3533 122.851 25.856C122.851 26.7427 123.042 27.4847 123.425 28.082C123.807 28.67 124.353 28.964 125.063 28.964C126.117 28.964 126.645 28.208 126.645 26.696C126.645 25.8187 126.453 25.086 126.071 24.498C125.688 23.9007 125.142 23.602 124.433 23.602ZM135.267 22.44C135.575 22.44 135.846 22.524 136.079 22.692C136.313 22.86 136.495 23.0933 136.625 23.392L135.701 24.554H135.169C135.132 24.3207 135.062 24.1573 134.959 24.064C134.866 23.9613 134.735 23.91 134.567 23.91C134.362 23.91 134.143 23.966 133.909 24.078C133.685 24.1807 133.429 24.3813 133.139 24.68V28.852L135.099 29.454L134.819 30.014H130.213V29.58L131.459 28.6V24.638L130.213 23.91V23.476L132.607 22.3L133.041 24.022L134.497 22.538C134.693 22.4633 134.95 22.426 135.267 22.426V22.44ZM141.099 30H137.193V29.566L138.439 28.586V19.976L137.193 19.108V18.674L139.587 17.778H140.119V28.95L141.379 29.44L141.099 30ZM151.097 30H148.437V28.992L147.135 30.028C146.836 30.1027 146.477 30.14 146.057 30.14C145.441 30.14 144.886 29.9813 144.391 29.664C143.906 29.3373 143.523 28.8987 143.243 28.348C142.972 27.7973 142.837 27.1907 142.837 26.528C142.837 25.8093 143.056 25.1373 143.495 24.512C143.934 23.8773 144.48 23.3733 145.133 23C145.796 22.6173 146.435 22.426 147.051 22.426C147.564 22.426 148.031 22.5707 148.451 22.86V19.976L147.205 19.108V18.674L149.599 17.778H150.131V28.95L151.377 29.44L151.097 30ZM146.771 28.95C147.051 28.95 147.317 28.9127 147.569 28.838C147.83 28.754 148.12 28.6 148.437 28.376V25.184C148.381 24.7173 148.162 24.3393 147.779 24.05C147.406 23.7513 146.892 23.602 146.239 23.602C145.184 23.602 144.657 24.3533 144.657 25.856C144.657 26.7333 144.839 27.4707 145.203 28.068C145.567 28.656 146.09 28.95 146.771 28.95Z" fill="#3CA9E5"/>
<defs>
<clipPath id="clip0_502_4">
<rect width="37.1212" height="35" fill="white"/>
</clipPath>
</defs>
</svg>
