<svg width="56" height="55" viewBox="0 0 56 55" fill="none" xmlns="http://www.w3.org/2000/svg">
<g clip-path="url(#clip0_402_9)">
<path d="M14.5319 0.359315L41.9887 18.3248V36.6496L0 9.16239L13.4568 0.359315C13.6219 0.258231 13.8067 0.205307 13.9943 0.205307C14.182 0.205307 14.3668 0.258231 14.5319 0.359315Z" fill="#3CA9E5"/>
<path d="M41.9887 0L27.9887 9.16239L41.9887 18.3248V0Z" fill="#2853C3"/>
<path d="M41.9887 0L55.4568 8.80308C55.6188 8.91481 55.7534 9.07089 55.8483 9.25699C55.9432 9.4431 55.9954 9.65326 56 9.86817V45.7991L41.9887 36.6496V0Z" fill="#1A4199"/>
<path d="M55.9887 45.8119L42.5319 54.615C42.3599 54.7277 42.1647 54.7869 41.966 54.7869C41.7674 54.7869 41.5722 54.7277 41.4001 54.615L13.9547 36.6496V18.2991L55.9887 45.8119Z" fill="#2853C3"/>
<path d="M1.91954e-05 9.16238V45.0933C-0.00111828 45.3148 0.0483151 45.5328 0.143511 45.7262C0.238707 45.9196 0.376425 46.0818 0.543269 46.1969L14 55V18.2991L1.91954e-05 9.16238Z" fill="#60BEFF"/>
<path d="M14 54.9743L27.9887 45.8119L14 36.6496V54.9743Z" fill="#3CA9E5"/>
</g>
<defs>
<clipPath id="clip0_402_9">
<rect width="56" height="55" fill="white"/>
</clipPath>
</defs>
</svg>
