<svg xmlns="http://www.w3.org/2000/svg" version="1.1" xmlns:xlink="http://www.w3.org/1999/xlink" xmlns:svgjs="http://svgjs.dev/svgjs" width="130" height="40" viewBox="0 0 2000 333"><g transform="matrix(1,0,0,1,-1.2121212121212466,0.6252067759759541)"><svg viewBox="0 0 396 66" data-background-color="#ffffff" preserveAspectRatio="xMidYMid meet" height="333" width="2000" xmlns="http://www.w3.org/2000/svg" xmlns:xlink="http://www.w3.org/1999/xlink"><g id="tight-bounds" transform="matrix(1,0,0,1,0.2400000000000091,-0.12391485649973788)"><svg viewBox="0 0 395.52 66.24782971299949" height="66.24782971299949" width="395.52"><g><svg viewBox="0 0 510.94050883742676 85.58024833873169" height="66.24782971299949" width="395.52"><g transform="matrix(1,0,0,1,115.42050883742677,16.55074855960975)"><svg viewBox="0 0 395.52 52.47875121951219" height="52.47875121951219" width="395.52"><g id="textblocktransform"><svg viewBox="0 0 395.52 52.47875121951219" height="52.47875121951219" width="395.52" id="textblock"><g><svg viewBox="0 0 395.52 52.47875121951219" height="52.47875121951219" width="395.52"><g transform="matrix(1,0,0,1,0,0)"><svg width="395.52" viewBox="3.8 -33.4 256.21999999999997 34" height="52.47875121951219" data-palette-color="#5264ff"><path d="M8.5 0L3.8 0 3.8-33.4 10.75-33.4 25.95-5 25.95-33.4 30.65-33.4 30.65 0 23.75 0 8.5-28.55 8.5 0ZM48.25 0.6L48.25 0.6Q46.1 0.6 44-0.15 41.9-0.9 40.17-2.48 38.45-4.05 37.4-6.5 36.35-8.95 36.35-12.3L36.35-12.3Q36.35-15.65 37.4-18.1 38.45-20.55 40.17-22.13 41.9-23.7 44-24.45 46.1-25.2 48.25-25.2L48.25-25.2Q50.4-25.2 52.52-24.45 54.65-23.7 56.37-22.13 58.1-20.55 59.12-18.1 60.15-15.65 60.15-12.3L60.15-12.3Q60.15-8.95 59.12-6.5 58.1-4.05 56.37-2.48 54.65-0.9 52.52-0.15 50.4 0.6 48.25 0.6ZM48.25-3.1L48.25-3.1Q50.05-3.1 51.75-4.08 53.45-5.05 54.55-7.08 55.65-9.1 55.65-12.3L55.65-12.3Q55.65-15.5 54.55-17.53 53.45-19.55 51.75-20.53 50.05-21.5 48.25-21.5L48.25-21.5Q46.5-21.5 44.77-20.53 43.05-19.55 41.95-17.53 40.85-15.5 40.85-12.3L40.85-12.3Q40.85-9.1 41.95-7.08 43.05-5.05 44.77-4.08 46.5-3.1 48.25-3.1ZM75.25 0L70.9 0 62.05-24.8 66.6-24.8 73.1-5.5 79.55-24.8 84.1-24.8 75.25 0ZM98.14 0.6L98.14 0.6Q94.24 0.6 91.54-1.13 88.84-2.85 87.42-5.78 85.99-8.7 85.99-12.35L85.99-12.35Q85.99-16.3 87.59-19.18 89.19-22.05 91.92-23.63 94.64-25.2 98.04-25.2L98.04-25.2Q100.99-25.2 103.24-24.03 105.49-22.85 106.97-20.88 108.44-18.9 109.12-16.4 109.79-13.9 109.59-11.25L109.59-11.25 90.49-11.25Q90.59-8.15 91.87-6.35 93.14-4.55 94.89-3.83 96.64-3.1 98.14-3.1L98.14-3.1Q100.24-3.1 101.67-3.78 103.09-4.45 103.94-5.55L103.94-5.55 107.99-4.35Q106.64-2.2 104.14-0.8 101.64 0.6 98.14 0.6ZM90.54-14.6L90.54-14.6 105.14-14.6Q105.14-16.35 104.27-17.95 103.39-19.55 101.82-20.58 100.24-21.6 98.04-21.6L98.04-21.6Q96.19-21.6 94.54-20.9 92.89-20.2 91.82-18.65 90.74-17.1 90.54-14.6ZM122.24 0L120.39 0Q118.04 0 116.77-0.48 115.49-0.95 115.02-2.3 114.54-3.65 114.54-6.2L114.54-6.2 114.54-33.35 118.74-33.35 118.74-6.9Q118.74-5 119.14-4.35 119.54-3.7 121.29-3.7L121.29-3.7 122.24-3.7 122.24 0ZM151.54 0L145.89 0 137.49-33.4 142.64-33.4 149.14-5.8 155.24-33.4 160.74-33.4 166.84-5.8 173.34-33.4 178.49-33.4 170.14 0 164.44 0 157.99-27.6 151.54 0ZM191.63 0.6L191.63 0.6Q189.48 0.6 187.38-0.15 185.28-0.9 183.56-2.48 181.83-4.05 180.78-6.5 179.73-8.95 179.73-12.3L179.73-12.3Q179.73-15.65 180.78-18.1 181.83-20.55 183.56-22.13 185.28-23.7 187.38-24.45 189.48-25.2 191.63-25.2L191.63-25.2Q193.78-25.2 195.91-24.45 198.03-23.7 199.76-22.13 201.48-20.55 202.51-18.1 203.53-15.65 203.53-12.3L203.53-12.3Q203.53-8.95 202.51-6.5 201.48-4.05 199.76-2.48 198.03-0.9 195.91-0.15 193.78 0.6 191.63 0.6ZM191.63-3.1L191.63-3.1Q193.43-3.1 195.13-4.08 196.83-5.05 197.93-7.08 199.03-9.1 199.03-12.3L199.03-12.3Q199.03-15.5 197.93-17.53 196.83-19.55 195.13-20.53 193.43-21.5 191.63-21.5L191.63-21.5Q189.88-21.5 188.16-20.53 186.43-19.55 185.33-17.53 184.23-15.5 184.23-12.3L184.23-12.3Q184.23-9.1 185.33-7.08 186.43-5.05 188.16-4.08 189.88-3.1 191.63-3.1ZM213.13 0L208.93 0 208.93-24.8 211.98-24.8 213.33-20.2Q214.63-22.45 216.86-23.83 219.08-25.2 222.18-25.2L222.18-25.2 222.18-20.85Q221.83-20.85 221.46-20.85 221.08-20.85 220.73-20.8L220.73-20.8Q216.48-20.45 214.81-17.85 213.13-15.25 213.13-10.65L213.13-10.65 213.13 0ZM233.63 0L231.78 0Q229.43 0 228.15-0.48 226.88-0.95 226.4-2.3 225.93-3.65 225.93-6.2L225.93-6.2 225.93-33.35 230.13-33.35 230.13-6.9Q230.13-5 230.53-4.35 230.93-3.7 232.68-3.7L232.68-3.7 233.63-3.7 233.63 0ZM246.93 0.6L246.93 0.6Q244.13 0.6 241.68-0.93 239.22-2.45 237.75-5.33 236.28-8.2 236.28-12.3L236.28-12.3Q236.28-16.4 237.75-19.28 239.22-22.15 241.68-23.68 244.13-25.2 246.93-25.2L246.93-25.2Q249.88-25.2 251.88-24.03 253.88-22.85 254.97-20.9L254.97-20.9 254.97-33.4 259.18-33.4 259.18-9.35Q259.18-8.1 259.27-5.68 259.38-3.25 260.02 0L260.02 0 256.07 0 254.97-3.75Q253.88-1.75 251.88-0.58 249.88 0.6 246.93 0.6ZM248.03-3L248.03-3Q251.22-3 253.15-5.45 255.07-7.9 255.07-12.3L255.07-12.3Q255.07-16.75 253.15-19.18 251.22-21.6 248.03-21.6L248.03-21.6Q244.82-21.6 242.9-19.18 240.97-16.75 240.97-12.3L240.97-12.3Q240.97-7.9 242.9-5.45 244.82-3 248.03-3Z" opacity="1" transform="matrix(1,0,0,1,0,0)" fill="#5264ff" class="wordmark-text-0" data-fill-palette-color="primary" id="text-0"></path></svg></g></svg></g></svg></g></svg></g><g><svg viewBox="0 0 103.0315351645292 85.58024833873169" height="85.58024833873169" width="103.0315351645292"><g><svg xmlns="http://www.w3.org/2000/svg" xmlns:xlink="http://www.w3.org/1999/xlink" version="1.1" x="0" y="0" viewBox="3.769 11.601038922793741 92.462 76.80096107720621" enable-background="new 0 0 100 100" xml:space="preserve" height="85.58024833873169" width="103.0315351645292" class="icon-icon-0" data-fill-palette-color="accent" id="icon-0"><path d="M3.769 40.913c0.552 0 1.104 0 1.762 0 0 15.156 0 30.244 0 45.383 1.576 0 3.049 0.05 4.517-0.01 3.143-0.129 6.288-0.313 9.325-1.223 1.236-0.37 2.436-0.866 3.635-1.349 1.932-0.779 3.91-1.246 6.014-1.2 2.603 0.057 4.035 1.191 4.564 3.84 0.358 0 0.743 0 1.129 0 0.368 0 0.735 0 1.146 0 0.079-0.351 0.131-0.66 0.218-0.959 0.506-1.736 2.026-2.784 4.028-2.876 2.38-0.11 4.629 0.402 6.769 1.38 3.43 1.568 7.068 2.128 10.783 2.282 2.026 0.084 4.058 0.015 6.195 0.015 0-0.244 0-0.578 0-0.912 0-12.039 0.043-24.079-0.052-36.118-0.013-1.589 0.766-2.298 1.907-3.156 0 14.21 0 28.301 0 42.392-20.632 0-41.263 0-61.94 0C3.769 72.571 3.769 56.742 3.769 40.913z" fill="#180084" data-fill-palette-color="accent"></path><path d="M51.621 48.824c-0.609-1.493-0.611-2.858-0.436-4.223 0.516-4.037 2.37-7.511 4.836-10.628 7.329-9.265 16.426-16.25 27.375-20.757 2.284-0.94 4.676-1.539 7.156-1.609 2.043-0.058 4 0.291 5.679 1.765-0.747-0.211-1.398-0.477-2.072-0.568-1.502-0.202-2.874 0.29-4.17 0.997-3.08 1.681-5.519 4.122-7.622 6.853-2.401 3.118-4.58 6.407-6.876 9.605-0.247 0.344-0.597 0.662-0.97 0.861-2.07 1.104-4.162 2.167-6.247 3.244 0.028 0.064 0.056 0.128 0.083 0.192 1.735-0.542 3.471-1.083 5.206-1.625 0.041 0.052 0.082 0.105 0.123 0.157-0.746 1.068-1.475 2.149-2.242 3.202-2.907 3.989-6.019 7.794-10.026 10.756-1.959 1.448-4.067 2.558-6.563 2.768-0.252 0.021-0.528 0.299-0.711 0.524-2.226 2.724-4.437 5.461-6.655 8.192-0.055 0.067-0.142 0.108-0.336 0.073 0.402-0.756 0.804-1.512 1.205-2.268 2.528-4.768 5.843-8.994 9.091-13.27 3.923-5.164 7.929-10.254 12.407-14.959 4.846-5.092 10.012-9.811 15.85-13.759 0.152-0.103 0.295-0.219 0.372-0.46-0.249 0.145-0.502 0.284-0.746 0.436-5.345 3.332-10.18 7.303-14.686 11.689-5.355 5.213-10.336 10.759-14.808 16.75-1.265 1.694-2.418 3.471-3.623 5.21C52.054 48.204 51.891 48.436 51.621 48.824z" fill="#180084" data-fill-palette-color="accent"></path><path d="M34.698 37.667c2.682-3.036 6.005-2.672 9.36-1.892 1.198 0.279 2.33 0.841 3.494 1.271 1.038 0.383 2.078 0.76 3.171 1.16-0.192 0.482-0.361 1.01-0.622 1.489-0.076 0.139-0.451 0.238-0.628 0.178-1.248-0.426-2.493-0.865-3.714-1.362-2.183-0.889-4.402-1.504-6.787-1.102-1.925 0.324-3.232 1.795-3.234 3.735-0.012 12.571-0.005 25.143-0.003 37.714 0 0.052 0.019 0.104 0.029 0.156 0.048 0.017 0.112 0.062 0.141 0.045 3.122-1.808 6.312-1.294 9.5-0.25 1.953 0.64 3.836 1.594 5.832 1.978 2.761 0.531 5.599 0.659 8.554 0.976 0-0.541 0-0.846 0-1.15 0-9.687 0.014-19.373-0.024-29.06-0.004-0.902 0.16-1.514 1.043-1.839 0.286-0.105 0.538-0.305 0.88-0.505 0 11.713 0 23.338 0 35.012-0.919 0-1.836 0.037-2.75-0.007-2.906-0.141-5.816-0.318-8.603-1.245-1.802-0.6-3.541-1.391-5.354-1.952-1.96-0.606-3.991-0.75-6.04-0.442-1.688 0.254-3.086 1.026-4.199 2.34-2.802-3.045-6.266-2.799-9.753-2.009-1.685 0.382-3.288 1.133-4.919 1.742-3.401 1.27-6.963 1.458-10.532 1.604-0.577 0.023-1.155 0.003-1.788 0.003 0-15.082 0-30.124 0-45.389 1.366 0 2.73 0.018 4.093-0.003 3.891-0.06 7.665-0.622 11.244-2.299 2.277-1.067 4.72-1.499 7.259-1.228C32.109 35.523 33.584 36.228 34.698 37.667zM33.711 79.138c0.016-0.178 0.033-0.281 0.033-0.384 0.001-12.464 0.003-24.927-0.009-37.391 0-0.467-0.079-0.955-0.225-1.398-0.605-1.843-2.276-2.797-4.622-2.698-1.984 0.083-3.858 0.606-5.646 1.439-2.851 1.327-5.881 1.845-8.984 2.045-1.522 0.098-3.045 0.164-4.56 0.244 0 13.556 0 27.038 0 40.658 2.217-0.16 4.375-0.293 6.529-0.477 2.59-0.221 4.94-1.247 7.334-2.17C26.902 77.719 30.294 77.195 33.711 79.138z" fill="#180084" data-fill-palette-color="accent"></path></svg></g></svg></g></svg></g><defs></defs></svg><rect width="395.52" height="66.24782971299949" fill="none" stroke="none" visibility="hidden"></rect></g></svg></g></svg>