<svg xmlns="http://www.w3.org/2000/svg" version="1.1" xmlns:xlink="http://www.w3.org/1999/xlink" xmlns:svgjs="http://svgjs.dev/svgjs" width="130" height="40" viewBox="0 0 2000 1500"><rect width="2000" height="1500" fill="#ffffff"></rect><g transform="matrix(0.75,0,0,0.75,249.35933519393143,544.8548553053571)"><svg viewBox="0 0 306 84" data-background-color="#ffffff" preserveAspectRatio="xMidYMid meet" height="549" width="2000" xmlns="http://www.w3.org/2000/svg" xmlns:xlink="http://www.w3.org/1999/xlink"><g id="tight-bounds" transform="matrix(1,0,0,1,0.1306956204379901,-0.14889579999999114)"><svg viewBox="0 0 305.738608759124 84.29779160000001" height="84.29779160000001" width="305.738608759124"><g><svg viewBox="0 0 305.738608759124 84.29779160000001" height="84.29779160000001" width="305.738608759124"><g><svg viewBox="0 0 305.738608759124 84.29779160000001" height="84.29779160000001" width="305.738608759124"><g id="textblocktransform"><svg viewBox="0 0 305.738608759124 84.29779160000001" height="84.29779160000001" width="305.738608759124" id="textblock"><g><svg viewBox="0 0 305.738608759124 55.1738" height="55.1738" width="305.738608759124"><g><svg><g></g><g></g></svg></g><g><svg><g><svg></svg></g><g></g></svg></g><g id="text-0"><svg viewBox="0 0 305.738608759124 55.1738" height="55.1738" width="305.738608759124"><g transform="matrix(1,0,0,1,0,10.5369)"><svg width="108.19075425790753" viewBox="-1 -38.1 131.39 42.1" height="34.1" data-palette-color="#1414e8"><path d="M23.5-19.4L23.5-32.1 31.5-32.1 31.5-0.45 23.55-0.45 14.55-13.85Q13.5-15.45 12.8-16.55 12.1-17.65 11.5-18.75 10.9-19.85 10.15-21.35L10.15-21.35 10-21.15Q10.7-18.75 10.85-16.68 11-14.6 11-12.65L11-12.65 11-0.45 3-0.45 3-32.1 10.95-32.1 19.95-18.7Q21-17.15 21.7-16.03 22.4-14.9 23-13.8 23.6-12.7 24.35-11.2L24.35-11.2 24.5-11.4Q24-13.5 23.75-15.48 23.5-17.45 23.5-19.4L23.5-19.4ZM35.75-12.45L35.75-12.45Q35.75-19.15 38.6-22.1 41.45-25.05 48.25-25.05L48.25-25.05Q52.8-25.05 55.55-23.75 58.3-22.45 59.52-19.68 60.75-16.9 60.75-12.45L60.75-12.45Q60.75-8.05 59.52-5.3 58.3-2.55 55.55-1.28 52.8 0 48.25 0L48.25 0Q41.45 0 38.6-2.93 35.75-5.85 35.75-12.45ZM48.25-6.85L48.25-6.85Q51.15-6.85 52.17-8.13 53.2-9.4 53.2-12.6L53.2-12.6Q53.2-15.65 52.17-16.98 51.15-18.3 48.25-18.3L48.25-18.3Q45.45-18.3 44.37-16.98 43.3-15.65 43.3-12.6L43.3-12.6Q43.3-9.4 44.37-8.13 45.45-6.85 48.25-6.85ZM87.95-24.8L87.95-24.65 80-0.45 70-0.45 62.5-24.7 62.5-24.8 71.5-24.8Q72.55-20.9 73.47-16.35 74.4-11.8 75.15-7.6L75.15-7.6 75.34-7.6Q76.09-11.8 77.02-16.35 77.95-20.9 79-24.8L79-24.8 87.95-24.8ZM112.89-6.8L112.89-1.25Q111.49-0.75 109.02-0.38 106.54 0 103.14 0L103.14 0Q98.84 0 95.82-1.13 92.79-2.25 91.24-4.98 89.69-7.7 89.69-12.55L89.69-12.55Q89.69-19.15 92.72-22.1 95.74-25.05 102.09-25.05L102.09-25.05Q106.64-25.05 109.27-23.75 111.89-22.45 113.02-20.08 114.14-17.7 114.14-14.45L114.14-14.45Q114.14-13.5 114.07-12.4 113.99-11.3 113.79-10.25L113.79-10.25 113.59-10.05 97.14-10.05Q97.49-7.85 99.22-7.15 100.94-6.45 104.84-6.45L104.84-6.45Q107.44-6.45 109.17-6.58 110.89-6.7 112.69-6.95L112.69-6.95 112.89-6.8ZM96.99-15.3L107.19-15.3Q107.19-16.5 106.82-17.38 106.44-18.25 105.34-18.73 104.24-19.2 102.09-19.2L102.09-19.2Q98.94-19.2 97.97-18.13 96.99-17.05 96.99-15.3L96.99-15.3ZM126.39-34.1L126.39-0.45 118.39-0.45 118.39-34.1 126.39-34.1Z" opacity="1" transform="matrix(1,0,0,1,0,0)" fill="#1414e8" class="undefined-yy-0"></path></svg></g><g><svg xmlns="http://www.w3.org/2000/svg" xmlns:xlink="http://www.w3.org/1999/xlink" version="1.1" x="121.21695425790753" y="0" viewBox="0 0 100 100" enable-background="new 0 0 100 100" xml:space="preserve" height="55.1738" width="55.1738" class="icon-cg-0" data-fill-palette-color="accent" id="cg-0"><path d="M73.899 31.583c0.44 0.445 0.44 1.17 0 1.604L56.883 50.207c-0.22 0.215-0.504 0.327-0.799 0.327-0.287 0-0.58-0.112-0.806-0.327-0.442-0.451-0.442-1.17 0-1.615l17.017-17.008C72.734 31.143 73.454 31.143 73.899 31.583zM15.077 30.113h27.807c0.768 0 1.393-0.623 1.393-1.39s-0.625-1.396-1.393-1.396H15.077c-0.768 0-1.385 0.628-1.385 1.396S14.309 30.113 15.077 30.113zM15.077 37.423h27.807c0.768 0 1.393-0.623 1.393-1.385 0-0.778-0.625-1.401-1.393-1.401H15.077c-0.768 0-1.385 0.623-1.385 1.401C13.692 36.8 14.309 37.423 15.077 37.423zM15.077 44.738h27.807c0.768 0 1.393-0.623 1.393-1.395 0-0.768-0.625-1.396-1.393-1.396H15.077c-0.768 0-1.385 0.628-1.385 1.396C13.692 44.115 14.309 44.738 15.077 44.738zM29.299 49.257H15.077c-0.768 0-1.385 0.628-1.385 1.396 0 0.773 0.617 1.396 1.385 1.396h14.223c0.773 0 1.396-0.622 1.396-1.396C30.695 49.885 30.072 49.257 29.299 49.257zM95 22.449V83.37c0 0.977-0.521 1.878-1.363 2.378-0.432 0.246-0.909 0.37-1.39 0.37-0.468 0-0.935-0.118-1.355-0.354-12.859-7.283-26.695-7.277-39.536 0-0.846 0.478-1.871 0.478-2.716 0-12.835-7.277-26.683-7.277-39.534 0-0.856 0.483-1.892 0.478-2.74-0.016C5.521 85.248 5 84.347 5 83.37V22.449c0-0.993 0.531-1.911 1.396-2.394C20.495 12.074 35.842 11.827 50 19.309c14.166-7.477 29.5-7.235 43.602 0.746C94.466 20.538 95 21.456 95 22.449zM48.285 79.382V53.824L36.604 65.514c-0.451 0.445-1.031 0.666-1.61 0.666-0.183 0-0.375-0.064-0.553-0.113l-0.751 0.752c-0.225 0.22-0.513 0.332-0.808 0.332-0.282 0-0.583-0.112-0.808-0.332-0.44-0.445-0.44-1.159 0-1.61l0.759-0.751c-0.199-0.746-0.032-1.573 0.553-2.163l14.899-14.899V24.649c-12.301-6.816-25.432-7.025-37.781-0.569v54.798c5.987-2.727 12.146-4.105 18.369-4.105C35.46 74.772 41.976 76.334 48.285 79.382zM89.496 24.08c-12.473-6.526-25.727-6.252-38.141 0.762-0.104 0.054-0.212 0.086-0.319 0.129v19.676l18.436-18.436c0.593-0.59 1.417-0.751 2.171-0.553 0.448-0.429 1.151-0.429 1.592 0.011 0.439 0.44 0.439 1.148 0.005 1.588 0.198 0.751 0.032 1.578-0.553 2.168l-21.65 21.65v28.671c12.491-6.241 25.906-6.585 38.46-0.869V24.08z" fill="#000000" data-fill-palette-color="accent"></path></svg></g><g transform="matrix(1,0,0,1,189.41695425790752,10.5369)"><svg width="116.32165450121654" viewBox="-3 -38.1 141.19 42.1" height="34.1" data-palette-color="#1414e8"><path d="M35.45-32.1L35.45-32.1 43.6-32.1 36.9-0.45 27.15-0.45Q25.6-5.8 24.48-10.9 23.35-16 22.35-21.8L22.35-21.8 22.25-21.8Q21.1-16 19.98-10.9 18.85-5.8 17.45-0.45L17.45-0.45 7.7-0.45 1-32.1 9.15-32.1Q9.9-28.6 10.5-25.25 11.1-21.9 11.68-18.43 12.25-14.95 12.85-10.9L12.85-10.9 12.95-10.9Q13.7-14.95 14.4-18.43 15.1-21.9 15.85-25.25 16.6-28.6 17.45-32.1L17.45-32.1 27.15-32.1Q28.3-26.8 29.43-21.5 30.55-16.2 31.65-10.9L31.65-10.9 31.75-10.9Q32.7-16.2 33.6-21.5 34.5-26.8 35.45-32.1ZM45.85-12.45L45.85-12.45Q45.85-19.15 48.7-22.1 51.55-25.05 58.35-25.05L58.35-25.05Q62.9-25.05 65.65-23.75 68.4-22.45 69.62-19.68 70.85-16.9 70.85-12.45L70.85-12.45Q70.85-8.05 69.62-5.3 68.4-2.55 65.65-1.28 62.9 0 58.35 0L58.35 0Q51.55 0 48.7-2.93 45.85-5.85 45.85-12.45ZM58.35-6.85L58.35-6.85Q61.25-6.85 62.27-8.13 63.3-9.4 63.3-12.6L63.3-12.6Q63.3-15.65 62.27-16.98 61.25-18.3 58.35-18.3L58.35-18.3Q55.55-18.3 54.47-16.98 53.4-15.65 53.4-12.6L53.4-12.6Q53.4-9.4 54.47-8.13 55.55-6.85 58.35-6.85ZM83.19-9.25L83.09-0.45 75.09-0.45 75.09-24.8 81.59-24.8 82.25-19.8 82.39-19.8Q82.84-22.6 84.55-23.83 86.25-25.05 89.59-25.05L89.59-25.05Q90.94-25.05 92.05-24.93 93.14-24.8 93.89-24.7L93.89-24.7 93.89-16.9 93.8-16.8Q93-17 91.97-17.15 90.94-17.3 89.64-17.3L89.64-17.3Q87.8-17.3 86.32-16.7 84.84-16.1 84.02-14.38 83.19-12.65 83.19-9.25L83.19-9.25 83.19-9.25ZM105.39-34.1L105.39-0.45 97.39-0.45 97.39-34.1 105.39-34.1ZM134.19-0.45L126.59-0.45 126.29-4 126.09-4Q125.24-2 123.67-1 122.09 0 119.09 0L119.09 0Q114.24 0 111.99-2.83 109.74-5.65 109.64-11.35L109.64-11.35Q109.59-16.45 110.69-19.45 111.79-22.45 114.14-23.75 116.49-25.05 120.14-25.05L120.14-25.05Q122.04-25.05 123.59-24.73 125.14-24.4 126.09-23.85L126.09-23.85 126.19-23.9 126.19-34.1 134.19-34.1 134.19-0.45ZM121.69-6.8L121.69-6.8Q123.69-6.8 124.94-8.05 126.19-9.3 126.19-12.2L126.19-12.2 126.19-17.45Q124.34-18.2 121.84-18.2L121.84-18.2Q119.49-18.2 118.47-17.07 117.44-15.95 117.44-12.55L117.44-12.55Q117.44-9.65 118.27-8.22 119.09-6.8 121.69-6.8Z" opacity="1" transform="matrix(1,0,0,1,0,0)" fill="#1414e8" class="undefined-yy-1"></path></svg></g></svg></g></svg></g><g transform="matrix(1,0,0,1,3.5,63.2239916)"><svg viewBox="0 0 298.738608759124 21.073800000000002" height="21.073800000000002" width="298.738608759124"><g transform="matrix(1,0,0,1,0,0)"><svg width="298.738608759124" viewBox="0.4500000000000002 -36.75 578.16 41.4" height="21.073800000000002" data-palette-color="#89939e"><path d="M4.45-1.55L4.45-26.95 7.85-27.25Q8.05-25.7 8.2-23.6 8.35-21.5 8.43-19.28 8.5-17.05 8.5-15.05L8.5-15.05 8.5-0.1Q8.25 0 7.73 0.13 7.2 0.25 6.65 0.25L6.65 0.25Q5.55 0.25 5-0.18 4.45-0.6 4.45-1.55L4.45-1.55ZM28.55-28.85L28.55-3.45 25.1-3.15Q24.6-7.35 24.53-11.73 24.45-16.1 24.45-20.2L24.45-20.2 24.45-30.3Q24.75-30.4 25.25-30.53 25.75-30.65 26.35-30.65L26.35-30.65Q27.45-30.65 28-30.23 28.55-29.8 28.55-28.85L28.55-28.85ZM24.8-4L28.55-4.95 28.55-0.55Q28.1-0.2 27.4 0.05 26.7 0.3 25.85 0.3L25.85 0.3Q24.65 0.3 23.8-0.18 22.95-0.65 22.25-1.9L22.25-1.9 12.75-17.9Q12-19.25 11.1-20.88 10.2-22.5 9.4-23.98 8.6-25.45 8.15-26.4L8.15-26.4 4.45-25.45 4.45-29.8Q4.85-30.2 5.58-30.45 6.3-30.7 7.15-30.7L7.15-30.7Q8.35-30.7 9.2-30.23 10.05-29.75 10.75-28.5L10.75-28.5 20.3-12.5Q21.1-11.15 21.98-9.53 22.85-7.9 23.6-6.43 24.35-4.95 24.8-4L24.8-4ZM90.03-11.55L90.03-11.55Q90.03-7.85 88.63-5.1 87.23-2.35 84.68-0.85 82.13 0.65 78.68 0.65L78.68 0.65Q75.23 0.65 72.65-0.85 70.08-2.35 68.68-5.1 67.28-7.85 67.28-11.55L67.28-11.55Q67.28-15.3 68.7-18.03 70.13-20.75 72.7-22.25 75.28-23.75 78.68-23.75L78.68-23.75Q82.08-23.75 84.63-22.25 87.18-20.75 88.6-18.03 90.03-15.3 90.03-11.55ZM78.68-20.45L78.68-20.45Q75.33-20.45 73.35-18.07 71.38-15.7 71.38-11.55L71.38-11.55Q71.38-7.35 73.3-5 75.23-2.65 78.68-2.65L78.68-2.65Q82.08-2.65 84-5.03 85.93-7.4 85.93-11.55L85.93-11.55Q85.93-15.7 84-18.07 82.08-20.45 78.68-20.45ZM145.35-23.55L145.35-23.55Q146.2-23.55 146.73-23.1 147.25-22.65 147.25-21.8L147.25-21.8Q147.25-21.15 146.7-19.35 146.15-17.55 145.25-15.05 144.35-12.55 143.28-9.83 142.2-7.1 141.08-4.58 139.95-2.05 139-0.2L139-0.2Q138.75 0 138.13 0.15 137.5 0.3 136.8 0.3L136.8 0.3Q135.95 0.3 135.3 0.03 134.65-0.25 134.4-0.75L134.4-0.75Q133.85-1.75 132.98-3.68 132.1-5.6 131.1-8.05 130.1-10.5 129.08-13.13 128.05-15.75 127.2-18.18 126.35-20.6 125.8-22.45L125.8-22.45Q126.15-22.95 126.75-23.25 127.35-23.55 127.95-23.55L127.95-23.55Q128.85-23.55 129.35-23.1 129.85-22.65 130.2-21.6L130.2-21.6 133.3-12.65Q133.7-11.5 134.35-9.8 135-8.1 135.65-6.4 136.3-4.7 136.7-3.55L136.7-3.55 136.9-3.55Q138.9-8.6 140.65-13.53 142.4-18.45 143.65-23.15L143.65-23.15Q144.3-23.55 145.35-23.55ZM202.88-11.35L186.08-9 185.88-12.15 200.98-14.2Q200.78-16.95 199.08-18.73 197.38-20.5 194.38-20.5L194.38-20.5Q191.28-20.5 189.25-18.28 187.23-16.05 187.23-11.9L187.23-11.9 187.23-10.8Q187.58-6.8 189.85-4.73 192.13-2.65 196.08-2.65L196.08-2.65Q198.18-2.65 199.88-3.35 201.58-4.05 202.58-4.85L202.58-4.85Q203.13-4.5 203.45-4.03 203.78-3.55 203.78-2.95L203.78-2.95Q203.78-2 202.7-1.18 201.63-0.35 199.85 0.15 198.08 0.65 195.88 0.65L195.88 0.65Q192.03 0.65 189.2-0.75 186.38-2.15 184.85-4.93 183.33-7.7 183.33-11.7L183.33-11.7Q183.33-14.55 184.15-16.78 184.98-19 186.45-20.55 187.93-22.1 189.98-22.93 192.03-23.75 194.43-23.75L194.43-23.75Q197.48-23.75 199.8-22.45 202.13-21.15 203.45-18.82 204.78-16.5 204.78-13.5L204.78-13.5Q204.78-12.4 204.28-11.93 203.78-11.45 202.88-11.35L202.88-11.35ZM242.8-1.55L242.8-13.2 246.8-12.6 246.8-0.1Q246.55 0 246.05 0.13 245.55 0.25 244.95 0.25L244.95 0.25Q243.9 0.25 243.35-0.18 242.8-0.6 242.8-1.55L242.8-1.55ZM246.8-30.95L246.8-10.7 242.8-11.25 242.8-32.4Q243.05-32.5 243.58-32.63 244.1-32.75 244.65-32.75L244.65-32.75Q245.75-32.75 246.28-32.33 246.8-31.9 246.8-30.95L246.8-30.95ZM342.56-22.85L342.56-22.85Q342.96-23.05 343.56-23.2 344.16-23.35 344.81-23.35L344.81-23.35Q345.81-23.35 346.48-23.03 347.16-22.7 347.36-22.05L347.36-22.05Q348.61-18.45 349.63-15.38 350.66-12.3 351.58-9.43 352.51-6.55 353.46-3.5L353.46-3.5 353.66-3.5Q354.61-8 355.51-12.28 356.41-16.55 357.26-20.95 358.11-25.35 358.81-30.35L358.81-30.35Q359.51-30.7 360.51-30.7L360.51-30.7Q361.46-30.7 362.01-30.28 362.56-29.85 362.56-29L362.56-29Q362.56-28.05 362.28-26.13 362.01-24.2 361.53-21.63 361.06-19.05 360.43-16.18 359.81-13.3 359.11-10.43 358.41-7.55 357.71-5 357.01-2.45 356.36-0.55L356.36-0.55Q355.91-0.3 355.21-0.08 354.51 0.15 353.61 0.15L353.61 0.15Q352.51 0.15 351.76-0.2 351.01-0.55 350.76-1.15L350.76-1.15Q350.06-2.9 349.06-5.78 348.06-8.65 346.98-12.08 345.91-15.5 344.91-18.85L344.91-18.85Q343.96-15.55 342.86-12 341.76-8.45 340.73-5.4 339.71-2.35 338.91-0.5L338.91-0.5Q338.56-0.3 337.83-0.08 337.11 0.15 336.21 0.15L336.21 0.15Q335.11 0.15 334.38-0.23 333.66-0.6 333.41-1.15L333.41-1.15Q332.91-2.4 332.18-4.9 331.46-7.4 330.66-10.63 329.86-13.85 329.08-17.32 328.31-20.8 327.63-24.03 326.96-27.25 326.56-29.75L326.56-29.75Q326.91-30.1 327.51-30.4 328.11-30.7 328.81-30.7L328.81-30.7Q329.71-30.7 330.21-30.28 330.71-29.85 330.91-28.85L330.91-28.85Q331.56-25.7 332.16-22.75 332.76-19.8 333.38-16.8 334.01-13.8 334.71-10.53 335.41-7.25 336.26-3.5L336.26-3.5 336.46-3.5Q337.16-5.75 337.81-7.8 338.46-9.85 339.16-12.03 339.86-14.2 340.68-16.8 341.51-19.4 342.56-22.85ZM421.78-11.55L421.78-11.55Q421.78-7.85 420.38-5.1 418.98-2.35 416.43-0.85 413.88 0.65 410.43 0.65L410.43 0.65Q406.98 0.65 404.41-0.85 401.83-2.35 400.43-5.1 399.03-7.85 399.03-11.55L399.03-11.55Q399.03-15.3 400.46-18.03 401.88-20.75 404.46-22.25 407.03-23.75 410.43-23.75L410.43-23.75Q413.83-23.75 416.38-22.25 418.93-20.75 420.36-18.03 421.78-15.3 421.78-11.55ZM410.43-20.45L410.43-20.45Q407.08-20.45 405.11-18.07 403.13-15.7 403.13-11.55L403.13-11.55Q403.13-7.35 405.06-5 406.98-2.65 410.43-2.65L410.43-2.65Q413.83-2.65 415.76-5.03 417.68-7.4 417.68-11.55L417.68-11.55Q417.68-15.7 415.76-18.07 413.83-20.45 410.43-20.45ZM463.81-18.8L463.81-18.8 463.81-10.9 459.81-10.9 459.81-18.5Q459.81-19.65 460.23-20.33 460.66-21 461.66-21.65L461.66-21.65Q462.96-22.5 465.21-23.13 467.46-23.75 470.21-23.75L470.21-23.75Q474.21-23.75 474.21-21.75L474.21-21.75Q474.21-21.25 474.06-20.83 473.91-20.4 473.66-20.1L473.66-20.1Q473.16-20.2 472.36-20.3 471.56-20.4 470.76-20.4L470.76-20.4Q468.46-20.4 466.71-19.93 464.96-19.45 463.81-18.8ZM459.81-1.55L459.81-13.2 463.81-12.6 463.81-0.1Q463.56 0 463.06 0.13 462.56 0.25 461.96 0.25L461.96 0.25Q460.91 0.25 460.36-0.18 459.81-0.6 459.81-1.55L459.81-1.55ZM511.13-1.55L511.13-13.2 515.13-12.6 515.13-0.1Q514.88 0 514.38 0.13 513.88 0.25 513.28 0.25L513.28 0.25Q512.23 0.25 511.68-0.18 511.13-0.6 511.13-1.55L511.13-1.55ZM515.13-30.95L515.13-10.7 511.13-11.25 511.13-32.4Q511.38-32.5 511.91-32.63 512.43-32.75 512.98-32.75L512.98-32.75Q514.08-32.75 514.61-32.33 515.13-31.9 515.13-30.95L515.13-30.95ZM570.61-3.95L570.61-3.95 570.61-20.75 574.61-20.8 574.61-3.8Q574.61-2.85 574.18-2.27 573.76-1.7 572.86-1.15L572.86-1.15Q571.86-0.5 570.01 0.08 568.16 0.65 565.76 0.65L565.76 0.65Q562.16 0.65 559.41-0.6 556.66-1.85 555.11-4.53 553.56-7.2 553.56-11.45L553.56-11.45Q553.56-15.8 555.08-18.5 556.61-21.2 559.21-22.48 561.81-23.75 564.91-23.75L564.91-23.75Q566.86-23.75 568.61-23.2 570.36-22.65 571.36-21.85L571.36-21.85 571.36-18.15Q570.41-19.1 568.88-19.78 567.36-20.45 565.31-20.45L565.31-20.45Q563.26-20.45 561.51-19.58 559.76-18.7 558.71-16.7 557.66-14.7 557.66-11.35L557.66-11.35Q557.66-6.8 559.86-4.73 562.06-2.65 565.71-2.65L565.71-2.65Q567.46-2.65 568.58-3.03 569.71-3.4 570.61-3.95ZM574.61-30.95L574.61-19.8 570.61-19.75 570.61-32.4Q570.86-32.5 571.38-32.63 571.91-32.75 572.46-32.75L572.46-32.75Q573.56-32.75 574.08-32.33 574.61-31.9 574.61-30.95L574.61-30.95Z" opacity="1" transform="matrix(1,0,0,1,0,0)" fill="#000000" class="slogan-text-1" data-fill-palette-color="secondary" id="text-1"></path></svg></g></svg></g></svg></g></svg></g><g></g></svg></g><defs></defs></svg><rect width="305.738608759124" height="84.29779160000001" fill="none" stroke="none" visibility="hidden"></rect></g></svg></g></svg>